<svg xmlns="http://www.w3.org/2000/svg" width="20" height="20.001" viewBox="0 0 20 20.001"><defs><style>.a{fill:#525252;}</style></defs><g transform="translate(0 0)"><path class="a" d="M15.969,3.12a.719.719,0,0,1,.72.719V18.023a.719.719,0,0,1-.72.732H1.98a.719.719,0,0,1-.694-.732V3.9a.719.719,0,0,1,.733-.719h13.95m0-1.284H1.98A1.979,1.979,0,0,0,0,3.839V18.023A1.978,1.978,0,0,0,1.98,20H15.969A1.966,1.966,0,0,0,18,18.023V3.9a1.966,1.966,0,0,0-1.967-1.964Z" transform="translate(0 0)"/><path class="a" d="M17.238,18.48V17.2A1.533,1.533,0,0,0,18.721,15.7V2.782a1.533,1.533,0,0,0-1.483-1.506H4.45A1.533,1.533,0,0,0,2.929,2.782H1.65A2.772,2.772,0,0,1,4.45,0H17.238A2.772,2.772,0,0,1,20,2.782V15.7A2.772,2.772,0,0,1,17.238,18.48Z" transform="translate(0 0)"/></g></svg>