<svg xmlns="http://www.w3.org/2000/svg" width="20" height="20" viewBox="0 0 20 20"><defs><style>.a{fill:#525252;}</style></defs><path class="a" d="M17.8,1.375a.813.813,0,0,1,.813.8v15.65a.812.812,0,0,1-.812.8H2.2a.813.813,0,0,1-.813-.8V2.175a.812.812,0,0,1,.812-.8H17.8M17.8,0H2.2A2.187,2.187,0,0,0,0,2.175v15.65A2.188,2.188,0,0,0,2.2,20H17.8A2.187,2.187,0,0,0,20,17.825V2.175A2.187,2.187,0,0,0,17.8,0Z" transform="translate(0 0)"/><rect class="a" width="1.11" height="18.91" transform="translate(4.542 0.54)"/><rect class="a" width="18.91" height="1.1" transform="translate(0.55 5.099)"/></svg>