<svg xmlns="http://www.w3.org/2000/svg" width="20" height="20" viewBox="0 0 20 20"><defs><style>.a{fill:#525252;}</style></defs><g transform="translate(0 0)"><path class="a" d="M13.6,44.188a.725.725,0,0,1-.723.726H-3.146a.725.725,0,0,1-.723-.726V28.124a.725.725,0,0,1,.723-.726H5.733V26.156H-3.146a1.965,1.965,0,0,0-1.962,1.968V44.188a1.965,1.965,0,0,0,1.962,1.968H12.882a1.965,1.965,0,0,0,1.962-1.968V34.749H13.6Z" transform="translate(5.108 -26.156)"/><path class="a" d="M4.222,14.557H0V10.322L9.9.4a1.273,1.273,0,0,1,1.847,0l2.375,2.382a1.282,1.282,0,0,1,0,1.853l-9.9,9.925Zm3.7-10.322h0l-6.6,6.616v2.383H3.695l6.6-6.617L7.917,4.235Zm2.9-2.912h0L8.84,3.308l2.375,2.383,1.979-1.985L10.819,1.323Z" transform="translate(5.486 0.533)"/></g></svg>