<svg xmlns="http://www.w3.org/2000/svg" width="20" height="20" viewBox="0 0 20 20"><defs><style>.a{fill:#525252;}</style></defs><path class="a" d="M1.574,16.021V2.364a.8.8,0,0,1,.787-.788H16a.8.8,0,0,1,.787.788V9.193h1.574V2.364A2.362,2.362,0,0,0,16,0H2.361A2.362,2.362,0,0,0,0,2.364V16.021a2.362,2.362,0,0,0,2.361,2.364H9.182V16.809H2.361a.8.8,0,0,1-.787-.788Z" transform="translate(0)"/><rect class="a" width="4.79" height="4.79" transform="translate(10.237 10.23)"/><rect class="a" width="5.17" height="1.626" transform="translate(14.83 11.703)"/><rect class="a" width="1.626" height="5.17" transform="translate(11.711 14.83)"/></svg>