<svg xmlns="http://www.w3.org/2000/svg" width="20" height="20" viewBox="0 0 20 20"><defs><style>.a{fill:#525252;}</style></defs><g transform="translate(0 0)"><path class="a" d="M9.375,13.75A10.423,10.423,0,0,1,.037,7.088a.625.625,0,0,1,0-.425A10.423,10.423,0,0,1,9.375,0a10.421,10.421,0,0,1,9.337,6.663.615.615,0,0,1,0,.425A10.421,10.421,0,0,1,9.375,13.75Zm0-12.5A8.565,8.565,0,0,0,4.568,2.875a9.144,9.144,0,0,0-3.274,4,9.152,9.152,0,0,0,3.274,4A8.571,8.571,0,0,0,9.375,12.5a8.571,8.571,0,0,0,4.807-1.624,9.157,9.157,0,0,0,3.275-4,9.146,9.146,0,0,0-3.275-4A8.565,8.565,0,0,0,9.375,1.25Zm0,9.374a3.75,3.75,0,1,1,3.749-3.749A3.754,3.754,0,0,1,9.375,10.625Zm0-6.25a2.5,2.5,0,1,0,2.5,2.5A2.5,2.5,0,0,0,9.375,4.375Z" transform="translate(0 0)"/></g></svg>