<svg xmlns="http://www.w3.org/2000/svg" width="20" height="20" viewBox="0 0 20 20"><defs><style>.a{fill:#525252;}</style></defs><g transform="translate(-0.625 -1.25)"><path class="a" d="M2.131,18.75h0l-.88-.88L17.869,1.25l.881.881-3,3.006a10.225,10.225,0,0,1,3.587,4.65.627.627,0,0,1,0,.425A10.421,10.421,0,0,1,10,16.875a9.57,9.57,0,0,1-4.681-1.312L2.132,18.749Zm5.706-5.7L6.25,14.638A8.189,8.189,0,0,0,10,15.625,8.561,8.561,0,0,0,14.807,14a9.144,9.144,0,0,0,3.274-4A9.062,9.062,0,0,0,14.85,6.037L13.056,7.832A3.75,3.75,0,0,1,7.837,13.05Zm4.313-4.3-3.4,3.4a2.48,2.48,0,0,0,3.4-3.4ZM3.275,14.069h0A10.053,10.053,0,0,1,.662,10.212a.627.627,0,0,1,0-.425A10.423,10.423,0,0,1,10,3.125a9.146,9.146,0,0,1,3.469.725l-.968.975a7.745,7.745,0,0,0-2.5-.45A8.565,8.565,0,0,0,5.193,6a9.149,9.149,0,0,0-3.274,4,8.835,8.835,0,0,0,2.25,3.182l-.893.887Zm3.088-3.106h0a3.764,3.764,0,0,1,.976-3.605,3.752,3.752,0,0,1,3.606-.975L9.813,7.519A2.514,2.514,0,0,0,7.5,9.832l-1.136,1.13Z"/></g></svg>