<svg xmlns="http://www.w3.org/2000/svg" width="20" height="20" viewBox="0 0 20 20"><defs><style>.a{fill:#525252;}</style></defs><g transform="translate(16.25) rotate(90)"><path class="a" d="M10.715,16.25H9.286V0h1.429V16.249Zm7.857-.678H14.286a1.4,1.4,0,0,1-1.429-1.354V2.031A1.4,1.4,0,0,1,14.286.677h4.286A1.394,1.394,0,0,1,20,2.031V14.218A1.394,1.394,0,0,1,18.572,15.572ZM14.286,2.031V14.218h4.286V2.031ZM5.715,15.572H1.429A1.4,1.4,0,0,1,0,14.218V2.031A1.4,1.4,0,0,1,1.429.677H5.715A1.394,1.394,0,0,1,7.143,2.031V14.218A1.394,1.394,0,0,1,5.715,15.572ZM1.429,2.031V14.218H5.715V2.031Z" transform="translate(0 0)"/></g></svg>