<svg xmlns="http://www.w3.org/2000/svg" width="20" height="20" viewBox="0 0 20 20"><defs><style>.a{fill:#fff;}</style></defs><path class="a" d="M19,20h0L12.83,13.834a7.8,7.8,0,0,1-10.036,0A7.7,7.7,0,0,1,.033,8.528,7.846,7.846,0,0,1,1.789,2.793,7.765,7.765,0,0,1,7.812,0,7.888,7.888,0,0,1,12.83,1.789,7.7,7.7,0,0,1,15.59,7.094a7.846,7.846,0,0,1-1.757,5.735L20,19l-1,1ZM7.812,1.359a6.426,6.426,0,1,0,4.57,1.882A6.416,6.416,0,0,0,7.812,1.359Z"/><rect class="a" width="1" height="6" transform="translate(11 7.5) rotate(90)"/></svg>